<svg width="76" height="75" viewBox="0 0 76 75" fill="none" xmlns="http://www.w3.org/2000/svg">
<g clip-path="url(#clip0_21_101)">
<path d="M13.605 44.7969V46.0525C13.6069 48.0517 14.4018 49.9685 15.8152 51.3824C17.2287 52.7963 19.1452 53.5918 21.1445 53.5943H25.753V49.4055H21.1445C20.2558 49.4042 19.4039 49.0505 18.7757 48.4219C18.1476 47.7933 17.7945 46.9411 17.7939 46.0525V44.7969H13.605Z" fill="#2750A4"/>
<path d="M68.8687 35.6717L66.4312 34.1629L64.228 37.7299L66.6655 39.2387C67.8241 39.9492 68.7805 40.9458 69.4427 42.1327C70.1049 43.3196 70.4505 44.657 70.4465 46.0161V56.3152C70.4455 57.4261 70.004 58.4913 69.2187 59.277C68.4334 60.0627 67.3685 60.5049 66.2576 60.5065H9.70264C8.59175 60.5049 7.52689 60.0627 6.74159 59.277C5.9563 58.4913 5.51471 57.4261 5.51377 56.3152V46.1374C5.51661 44.7532 5.87844 43.3936 6.56387 42.1911C7.2493 40.9886 8.23489 39.9845 9.4244 39.2768L12.0402 37.7311C13.4743 36.8785 14.7185 35.741 15.6958 34.3889C16.6731 33.0367 17.3628 31.4986 17.7225 29.8694L18.9115 24.4654C19.3084 22.6936 20.2948 21.109 21.7093 19.9705C23.1238 18.8321 24.8826 18.2072 26.6983 18.1981H41.153V14.0093H26.6983C23.9287 14.0225 21.2456 14.9752 19.0879 16.7116C16.9302 18.4479 15.4255 20.8651 14.8201 23.5677L13.6311 28.9717C13.3958 30.0401 12.9438 31.0489 12.3031 31.9357C11.6623 32.8224 10.8465 33.5683 9.90598 34.1272L7.29016 35.6729C5.47613 36.7526 3.97295 38.284 2.92726 40.1178C1.88157 41.9516 1.32909 44.0252 1.32373 46.1362V56.314C1.32593 58.5355 2.20924 60.6654 3.77982 62.2364C5.35041 63.8074 7.48003 64.6913 9.70148 64.6941H66.2552C68.4767 64.6913 70.6063 63.8074 72.1769 62.2364C73.7475 60.6654 74.6308 58.5355 74.633 56.314V46.0078C74.6392 43.9352 74.1123 41.8959 73.1028 40.0858C72.0933 38.2757 70.6352 36.7556 68.8687 35.6717Z" fill="#AEBFDC"/>
<path d="M52.4328 71.6496C52.4328 72.5382 52.7858 73.3905 53.4142 74.0188C54.0425 74.6472 54.8948 75.0002 55.7834 75.0002H62.9056C63.7942 75.0002 64.6465 74.6472 65.2748 74.0188C65.9032 73.3905 66.2562 72.5382 66.2562 71.6496V67.041H52.4316L52.4328 71.6496Z" fill="#AEBFDC"/>
<path d="M10.4639 71.6496C10.4639 72.5382 10.8169 73.3905 11.4452 74.0188C12.0736 74.6472 12.9258 75.0002 13.8145 75.0002H20.9354C21.3756 75.0005 21.8116 74.9141 22.2184 74.7458C22.6252 74.5776 22.9949 74.3308 23.3063 74.0197C23.6176 73.7085 23.8646 73.339 24.0331 72.9324C24.2017 72.5257 24.2884 72.0898 24.2884 71.6496V67.041H10.4639V71.6496Z" fill="#AEBFDC"/>
<path d="M10.5422 22.1108H4.2583V26.2997H10.5422V22.1108Z" fill="#AEBFDC"/>
<path d="M42.9805 36.1459C42.9807 35.4701 42.8476 34.8009 42.5891 34.1764C42.3305 33.552 41.9515 32.9847 41.4736 32.5068C40.9958 32.0289 40.4283 31.6499 39.8039 31.3913C39.1795 31.1328 38.5103 30.9998 37.8345 30.9999C36.4697 30.9999 35.1608 31.5421 34.1957 32.5072C33.2306 33.4722 32.6885 34.7811 32.6885 36.1459C32.6886 37.1402 32.9772 38.1131 33.5191 38.9467C34.0611 39.7803 34.8332 40.4389 35.7418 40.8425V46.4082C35.7443 49.2404 36.8704 51.9559 38.8728 53.9588C40.8753 55.9616 43.5904 57.0883 46.4226 57.0914H48.9374C51.7696 57.0883 54.4848 55.9616 56.4872 53.9588C58.4896 51.9559 59.6157 49.2404 59.6182 46.4082V32.5433C61.0676 32.2097 62.366 31.4063 63.3113 30.258L70.9542 21.0111C72.8616 18.7198 73.8413 15.797 73.7 12.8191C73.5587 9.84115 72.3067 7.02423 70.1909 4.92388L68.9602 3.69325L69.7854 1.48052L65.8616 0.0156694L62.7382 8.38864L66.6619 9.85348L67.3456 8.01647C68.6683 9.38935 69.4382 11.2019 69.5078 13.1071C69.5773 15.0122 68.9416 16.8761 67.7224 18.3418L60.0795 27.591C59.8359 27.8863 59.5299 28.1238 59.1834 28.2867C58.837 28.4495 58.4589 28.5335 58.0761 28.5327C57.6906 28.5336 57.3097 28.448 56.9616 28.2824C56.6135 28.1167 56.3068 27.8752 56.0643 27.5756L48.5534 18.3442C47.3331 16.853 46.7115 14.961 46.8097 13.0367C46.908 11.1124 47.719 9.29354 49.0848 7.93443L49.4249 7.59438L50.4617 9.86894L54.2736 8.12824L50.5616 -0.000976562L46.7567 1.73734L47.5724 3.52798L46.1302 4.97025C44.0292 7.06153 42.7813 9.85959 42.6292 12.8201C42.4771 15.7806 43.4317 18.6918 45.3073 20.9873L52.8207 30.2188C53.5193 31.0748 54.4176 31.7461 55.4365 32.1735V46.4082C55.4353 48.1298 54.7509 49.7806 53.5338 50.9982C52.3166 52.2158 50.6661 52.9007 48.9445 52.9026H46.4298C44.7082 52.9007 43.0577 52.2158 41.8406 50.9982C40.6234 49.7806 39.9391 48.1298 39.9378 46.4082V40.8365C40.8436 40.4317 41.6128 39.7734 42.1527 38.9411C42.6926 38.1088 42.9801 37.138 42.9805 36.1459Z" fill="#2750A4"/>
</g>
<defs>
<clipPath id="clip0_21_101">
<rect width="75" height="75" fill="white" transform="translate(0.47998)"/>
</clipPath>
</defs>
</svg>
