<svg width="76" height="75" viewBox="0 0 76 75" fill="none" xmlns="http://www.w3.org/2000/svg">
<g clip-path="url(#clip0_21_114)">
<path d="M4.80016 48.3588V38.6607C4.80268 37.3417 5.14722 36.0459 5.80015 34.8999C6.45308 33.7539 7.39206 32.7968 8.52541 32.1221L11.0152 30.6473C12.3821 29.8352 13.568 28.7514 14.4995 27.463C15.431 26.1745 16.0884 24.7087 16.431 23.1561L17.5586 18.009C17.9361 16.3203 18.8759 14.8098 20.2239 13.7249C21.572 12.6399 23.2484 12.0448 24.9788 12.037H46.9435C48.6738 12.0452 50.3501 12.6404 51.6981 13.7253C53.046 14.8102 53.9859 16.3205 54.3638 18.009L55.514 23.2639L59.4134 22.4125L58.2631 17.1576C57.6861 14.582 56.2523 12.2784 54.196 10.6236C52.1398 8.96879 49.5829 8.0607 46.9435 8.04785H24.9788C22.3393 8.06036 19.7823 8.96833 17.726 10.6232C15.6696 12.2781 14.2359 14.5819 13.6592 17.1576L12.5316 22.3047C12.3073 23.3224 11.8766 24.2833 11.2663 25.1281C10.656 25.9728 9.87899 26.6835 8.98327 27.2162L6.49156 28.691C4.76339 29.72 3.33148 31.1795 2.33556 32.927C1.33963 34.6745 0.813707 36.6503 0.809082 38.6616V48.3588C0.811335 50.4751 1.65286 52.504 3.14909 54.0006C4.64531 55.4972 6.67405 56.3392 8.79028 56.3419H34.5436V52.3499H8.79028C7.73241 52.3482 6.71839 51.9271 5.97045 51.179C5.22251 50.4308 4.80166 49.4167 4.80016 48.3588Z" fill="#AEBFDC"/>
<path d="M9.51562 63.7594C9.51562 64.6062 9.85198 65.4182 10.4507 66.017C11.0495 66.6157 11.8616 66.9521 12.7083 66.9521H19.4929C20.3396 66.9521 21.1517 66.6157 21.7504 66.017C22.3492 65.4182 22.6855 64.6062 22.6855 63.7594V59.3691H9.51562V63.7594Z" fill="#AEBFDC"/>
<path d="M68.6595 15.7651H62.6724V19.7562H68.6595V15.7651Z" fill="#AEBFDC"/>
<path d="M9.58964 15.7651H3.60254V19.7562H9.58964V15.7651Z" fill="#AEBFDC"/>
<path d="M10.4639 35.7451V36.9389C10.4656 38.8434 11.2229 40.6694 12.5696 42.016C13.9163 43.3627 15.7422 44.12 17.6467 44.1218H22.0389V40.1354H17.6467C16.8003 40.1342 15.989 39.7974 15.3905 39.1989C14.792 38.6004 14.4552 37.7891 14.454 36.9427V35.7451H10.4639Z" fill="#2750A4"/>
<path d="M34.3059 17.4587L23.9287 26.3867L26.5323 29.4129L36.9095 20.4849L34.3059 17.4587Z" fill="#AEBFDC"/>
<path d="M39.8926 23.1998L33.5068 28.6938L36.1104 31.72L42.4962 26.226L39.8926 23.1998Z" fill="#AEBFDC"/>
<path d="M56.8883 29.1084C54.4038 29.1084 51.9436 29.5978 49.6481 30.5486C47.3527 31.4994 45.267 32.893 43.5101 34.6498C41.7533 36.4067 40.3597 38.4923 39.4089 40.7878C38.4581 43.0832 37.9688 45.5434 37.9688 48.028C37.9688 50.5125 38.4581 52.9727 39.4089 55.2682C40.3597 57.5636 41.7533 59.6493 43.5101 61.4061C45.267 63.163 47.3527 64.5566 49.6481 65.5074C51.9436 66.4582 54.4038 66.9475 56.8883 66.9475C61.9061 66.9475 66.7183 64.9542 70.2665 61.4061C73.8146 57.858 75.8079 53.0457 75.8079 48.028C75.8079 43.0102 73.8146 38.1979 70.2665 34.6498C66.7183 31.1017 61.9061 29.1084 56.8883 29.1084ZM63.5915 56.66L57.4635 53.4437L51.3373 56.66L52.5084 49.8376L47.5515 45.0075L54.4004 44.0113L57.4606 37.8048L60.5256 44.0123L67.3735 45.0084L62.4166 49.8386L63.5915 56.66Z" fill="#2750A4"/>
</g>
<defs>
<clipPath id="clip0_21_114">
<rect width="75" height="75" fill="white" transform="translate(0.810059)"/>
</clipPath>
</defs>
</svg>
