<svg width="76" height="75" viewBox="0 0 76 75" fill="none" xmlns="http://www.w3.org/2000/svg">
<g clip-path="url(#clip0_21_87)">
<path d="M69.2633 28.4623L66.768 26.9172C65.84 26.3404 65.0366 25.584 64.405 24.6924C63.7734 23.8009 63.3263 22.7921 63.0901 21.7253L61.8555 16.0827C61.2357 13.3176 59.6959 10.8446 57.4881 9.06819C55.2802 7.2918 52.535 6.31717 49.7012 6.30371H26.1147C23.2808 6.31667 20.5352 7.29094 18.327 9.06718C16.1187 10.8434 14.5786 13.3164 13.9586 16.0817L12.749 21.6111C12.5079 22.7037 12.0452 23.7353 11.3897 24.6421C10.7342 25.5489 9.89975 26.3116 8.93785 26.8831L6.26229 28.4673C4.40698 29.5727 2.8697 31.1399 1.80028 33.0162C0.730869 34.8925 0.165809 37.0139 0.160156 39.1735V49.5874C0.162807 51.8601 1.06685 54.0389 2.67394 55.6458C4.28104 57.2527 6.45998 58.1565 8.73262 58.1589H66.5907C68.8631 58.1562 71.0416 57.2523 72.6484 55.6454C74.2551 54.0384 75.1588 51.8598 75.1612 49.5874V39.0434C75.1689 36.9218 74.6304 34.8339 73.5975 32.9807C72.5645 31.1275 71.0719 29.5714 69.2633 28.4623ZM70.8744 49.5904C70.8731 50.7266 70.4213 51.8159 69.6181 52.6194C68.8149 53.423 67.7259 53.8753 66.5897 53.8771H8.73158C7.59535 53.8756 6.50614 53.4233 5.70289 52.6197C4.89963 51.8161 4.44794 50.7267 4.44688 49.5904V39.1765C4.45025 37.7608 4.82035 36.3701 5.52106 35.14C6.22178 33.9098 7.22918 32.8822 8.44519 32.1572L11.1208 30.5751C12.5887 29.7034 13.8622 28.5396 14.8622 27.1558C15.8622 25.7721 16.5676 24.1977 16.9345 22.5303L18.1462 17.003C18.5526 15.1906 19.5621 13.5697 21.0094 12.4056C22.4568 11.2414 24.2564 10.6029 26.1138 10.5944H49.7002C51.5575 10.603 53.3569 11.2415 54.8041 12.4057C56.2513 13.5698 57.2606 15.1906 57.6668 17.003L58.9035 22.6455C59.2634 24.2725 59.9448 25.8111 60.9077 27.1709C61.8707 28.5308 63.0958 29.6844 64.511 30.5641L67.0093 32.1031C68.1946 32.8306 69.1727 33.8509 69.8494 35.0659C70.5262 36.2809 70.8789 37.6496 70.8735 39.0404L70.8744 49.5904Z" fill="white"/>
<path d="M52.4468 65.2684C52.447 66.1774 52.8082 67.049 53.451 67.6918C54.0937 68.3345 54.9654 68.6957 55.8744 68.696H63.1601C64.0693 68.696 64.9413 68.3349 65.5844 67.6922C66.2275 67.0495 66.5891 66.1776 66.5897 65.2684V60.5571H52.4458L52.4468 65.2684Z" fill="white"/>
<path d="M9.50879 65.2684C9.50932 66.1776 9.87092 67.0495 10.514 67.6922C11.1571 68.3349 12.0291 68.696 12.9383 68.696H20.2241C21.1332 68.696 22.0052 68.3349 22.6481 67.6921C23.2911 67.0494 23.6524 66.1776 23.6526 65.2684V60.5571H9.50879V65.2684Z" fill="white"/>
<path d="M54.7 32.1593C53.8484 30.0694 52.3935 28.2806 50.5208 27.0213C48.6482 25.762 46.4427 25.0892 44.186 25.0889C42.2227 25.0901 40.2935 25.6009 38.5869 26.5714C36.8803 27.5418 35.4549 28.9387 34.45 30.6252V30.6012H20.6216V42.2307H34.425C35.4275 43.9275 36.855 45.3338 38.5667 46.3107C40.2784 47.2877 42.2151 47.8018 44.186 47.8022C46.4032 47.8017 48.5718 47.1523 50.4243 45.9339C52.2768 44.7156 53.7322 42.9817 54.6109 40.946H45.8992L42.4697 36.44L45.8992 32.1553L54.7 32.1593Z" fill="white"/>
<path d="M73.0174 14.5889H66.5889V18.8746H73.0174V14.5889Z" fill="white"/>
<path d="M9.58873 14.5889H3.16016V18.8746H9.58873V14.5889Z" fill="white"/>
</g>
<defs>
<clipPath id="clip0_21_87">
<rect width="75" height="75" fill="white" transform="translate(0.160156)"/>
</clipPath>
</defs>
</svg>
